<svg width="112" height="112" viewBox="0 0 112 112" fill="none" xmlns="http://www.w3.org/2000/svg">
<circle cx="56" cy="56" r="56" fill="white"/>
<mask id="mask0_247_79" style="mask-type:alpha" maskUnits="userSpaceOnUse" x="17" y="22" width="79" height="90">
<path d="M82.1621 38.8926C77.8379 28.9434 67.9238 22 56.375 22C44.8262 22 34.9121 28.9434 30.5879 38.8926C27.7051 39.1387 25.4375 41.5469 25.4375 44.5V55.75C25.4375 58.7031 27.7051 61.1113 30.5879 61.3574C34.9121 71.3066 44.8262 78.25 56.375 78.25C67.9238 78.25 77.8379 71.3066 82.1621 61.3574C85.0449 61.1113 87.3125 58.7031 87.3125 55.75V44.5C87.3125 41.5469 85.0449 39.1387 82.1621 38.8926ZM76.0625 47.3125V50.125C76.0625 59.4414 68.5039 67 59.1875 67H53.5625C44.2461 67 36.6875 59.4414 36.6875 50.125V47.3125C36.6875 42.6543 40.4668 38.875 45.125 38.875H67.625C72.2832 38.875 76.0625 42.6543 76.0625 47.3125ZM50.2754 50.5996L49.2207 46.873C49.0625 46.293 48.5352 45.9062 47.9375 45.9062C47.3398 45.9062 46.8125 46.293 46.6543 46.873L45.5996 50.5996L41.873 51.6543C41.293 51.8125 40.9062 52.3398 40.9062 52.9375C40.9062 53.5352 41.293 54.0625 41.873 54.2207L45.5996 55.2754L46.6543 59.002C46.8125 59.582 47.3398 59.9688 47.9375 59.9688C48.5352 59.9688 49.0625 59.582 49.2207 59.002L50.2754 55.2754L54.002 54.2207C54.582 54.0625 54.9688 53.5352 54.9688 52.9375C54.9688 52.3398 54.582 51.8125 54.002 51.6543L50.2754 50.5996ZM36.8105 77.6348C25.209 82.2227 17 93.543 17 106.779C17 109.662 19.3379 112 22.2207 112H39.5V100.75C39.5 97.6387 42.0137 95.125 45.125 95.125H67.625C70.7363 95.125 73.25 97.6387 73.25 100.75V112H90.5293C93.4121 112 95.75 109.662 95.75 106.779C95.75 93.543 87.541 82.2227 75.9394 77.6348C70.4199 81.5547 63.6699 83.875 56.375 83.875C49.0801 83.875 42.3301 81.5547 36.8105 77.6348ZM47.9375 100.75C46.3906 100.75 45.125 102.016 45.125 103.562V112H50.75V103.562C50.75 102.016 49.4844 100.75 47.9375 100.75ZM64.8125 106.375C66.3594 106.375 67.625 105.109 67.625 103.562C67.625 102.016 66.3594 100.75 64.8125 100.75C63.2656 100.75 62 102.016 62 103.562C62 105.109 63.2656 106.375 64.8125 106.375Z" fill="#0F0220"/>
</mask>
<g mask="url(#mask0_247_79)">
<circle cx="56" cy="56" r="56" fill="#CFCFCF"/>
</g>
</svg>
