<svg width="40" height="40" viewBox="0 0 40 40" fill="none" xmlns="http://www.w3.org/2000/svg">
<rect x="19" y="36" width="2" height="2" fill="#D10000"/>
<rect x="21" y="34" width="2" height="2" fill="#D10000"/>
<rect x="23" y="32" width="2" height="2" fill="#D10000"/>
<rect x="25" y="30" width="2" height="2" fill="#D10000"/>
<rect x="27" y="28" width="2" height="2" fill="#D10000"/>
<rect x="29" y="26" width="2" height="2" fill="#D10000"/>
<rect x="31" y="24" width="2" height="2" fill="#D10000"/>
<rect x="17" y="34" width="2" height="2" fill="#D10000"/>
<rect x="15" y="32" width="2" height="2" fill="#D10000"/>
<rect x="13" y="30" width="2" height="2" fill="#D10000"/>
<rect x="11" y="28" width="2" height="2" fill="#D10000"/>
<rect x="9" y="26" width="2" height="2" fill="#D10000"/>
<rect x="7" y="24" width="2" height="2" fill="#D10000"/>
<rect x="5" y="22" width="2" height="2" fill="#D10000"/>
<rect x="3" y="20" width="2" height="2" fill="#D10000"/>
<rect x="1" y="18" width="2" height="2" fill="#D10000"/>
<rect x="33" y="22" width="2" height="2" fill="#D10000"/>
<rect x="35" y="20" width="2" height="2" fill="#D10000"/>
<rect x="37" y="18" width="2" height="2" fill="#D10000"/>
<rect x="37" y="16" width="2" height="2" fill="#D10000"/>
<rect x="37" y="14" width="2" height="2" fill="#D10000"/>
<rect x="37" y="12" width="2" height="2" fill="#D10000"/>
<rect x="37" y="10" width="2" height="2" fill="#D10000"/>
<rect x="1" y="16" width="2" height="2" fill="#D10000"/>
<rect x="1" y="14" width="2" height="2" fill="#D10000"/>
<rect x="1" y="12" width="2" height="2" fill="#D10000"/>
<rect x="1" y="10" width="2" height="2" fill="#D10000"/>
<rect x="3" y="18" width="2" height="2" fill="#D10000"/>
<rect x="3" y="16" width="2" height="2" fill="#D10000"/>
<rect x="3" y="14" width="2" height="2" fill="#D10000"/>
<rect x="3" y="12" width="2" height="2" fill="#D10000"/>
<rect x="3" y="10" width="2" height="2" fill="#D10000"/>
<rect x="5" y="18" width="2" height="2" fill="#D10000"/>
<rect x="5" y="20" width="2" height="2" fill="#D10000"/>
<rect x="5" y="16" width="2" height="2" fill="#D10000"/>
<rect x="5" y="14" width="2" height="2" fill="#D10000"/>
<rect x="5" y="12" width="2" height="2" fill="#D10000"/>
<rect x="5" y="10" width="2" height="2" fill="#D10000"/>
<rect x="5" y="8" width="2" height="2" fill="#D10000"/>
<rect x="7" y="6" width="2" height="2" fill="#D10000"/>
<rect x="9" y="4" width="2" height="2" fill="#D10000"/>
<rect x="9" y="6" width="2" height="2" fill="#D10000"/>
<rect x="9" y="8" width="2" height="2" fill="#D10000"/>
<rect x="9" y="10" width="2" height="2" fill="#D10000"/>
<rect x="9" y="12" width="2" height="2" fill="#D10000"/>
<rect x="7" y="12" width="2" height="2" fill="#D10000"/>
<rect x="7" y="10" width="2" height="2" fill="#D10000"/>
<rect x="7" y="8" width="2" height="2" fill="#D10000"/>
<rect x="13" y="4" width="2" height="2" fill="#D10000"/>
<rect x="15" y="6" width="2" height="2" fill="#D10000"/>
<rect x="17" y="8" width="2" height="2" fill="#D10000"/>
<rect x="19" y="10" width="2" height="2" fill="#D10000"/>
<rect x="21" y="8" width="2" height="2" fill="#D10000"/>
<rect x="23" y="6" width="2" height="2" fill="#D10000"/>
<rect x="25" y="4" width="2" height="2" fill="#D10000"/>
<rect x="7" y="22" width="2" height="2" fill="#D10000"/>
<rect x="7" y="20" width="2" height="2" fill="#D10000"/>
<rect x="7" y="18" width="2" height="2" fill="#D10000"/>
<rect x="7" y="16" width="2" height="2" fill="#D10000"/>
<rect x="7" y="14" width="2" height="2" fill="#D10000"/>
<rect x="9" y="24" width="2" height="2" fill="#D10000"/>
<rect x="9" y="22" width="2" height="2" fill="#D10000"/>
<rect x="9" y="20" width="2" height="2" fill="#D10000"/>
<rect x="9" y="18" width="2" height="2" fill="#D10000"/>
<rect x="9" y="16" width="2" height="2" fill="#D10000"/>
<rect x="9" y="14" width="2" height="2" fill="#D10000"/>
<rect x="11" y="26" width="2" height="2" fill="#D10000"/>
<rect x="11" y="24" width="2" height="2" fill="#D10000"/>
<rect x="11" y="22" width="2" height="2" fill="#D10000"/>
<rect x="11" y="20" width="2" height="2" fill="#D10000"/>
<rect x="11" y="18" width="2" height="2" fill="#D10000"/>
<rect x="11" y="16" width="2" height="2" fill="#D10000"/>
<rect x="13" y="28" width="2" height="2" fill="#D10000"/>
<rect x="13" y="26" width="2" height="2" fill="#D10000"/>
<rect x="13" y="24" width="2" height="2" fill="#D10000"/>
<rect x="13" y="22" width="2" height="2" fill="#D10000"/>
<rect x="13" y="20" width="2" height="2" fill="#D10000"/>
<rect x="13" y="18" width="2" height="2" fill="#D10000"/>
<rect x="15" y="30" width="2" height="2" fill="#D10000"/>
<rect x="15" y="28" width="2" height="2" fill="#D10000"/>
<rect x="15" y="26" width="2" height="2" fill="#D10000"/>
<rect x="15" y="24" width="2" height="2" fill="#D10000"/>
<rect x="15" y="22" width="2" height="2" fill="#D10000"/>
<rect x="15" y="20" width="2" height="2" fill="#D10000"/>
<rect x="15" y="18" width="2" height="2" fill="#D10000"/>
<rect x="15" y="16" width="2" height="2" fill="#D10000"/>
<rect x="15" y="14" width="2" height="2" fill="#D10000"/>
<rect x="15" y="12" width="2" height="2" fill="#D10000"/>
<rect x="15" y="10" width="2" height="2" fill="#D10000"/>
<rect x="15" y="8" width="2" height="2" fill="#D10000"/>
<rect x="13" y="16" width="2" height="2" fill="#D10000"/>
<rect x="13" y="14" width="2" height="2" fill="#D10000"/>
<rect x="13" y="12" width="2" height="2" fill="#D10000"/>
<rect x="13" y="10" width="2" height="2" fill="#D10000"/>
<rect x="13" y="8" width="2" height="2" fill="#D10000"/>
<rect x="13" y="6" width="2" height="2" fill="#D10000"/>
<rect x="11" y="14" width="2" height="2" fill="#D10000"/>
<rect x="11" y="12" width="2" height="2" fill="#D10000"/>
<rect x="11" y="10" width="2" height="2" fill="#D10000"/>
<rect x="11" y="8" width="2" height="2" fill="#D10000"/>
<rect x="11" y="6" width="2" height="2" fill="#D10000"/>
<rect x="11" y="4" width="2" height="2" fill="#D10000"/>
<rect x="17" y="32" width="2" height="2" fill="#D10000"/>
<rect x="17" y="30" width="2" height="2" fill="#D10000"/>
<rect x="17" y="28" width="2" height="2" fill="#D10000"/>
<rect x="17" y="26" width="2" height="2" fill="#D10000"/>
<rect x="17" y="24" width="2" height="2" fill="#D10000"/>
<rect x="17" y="22" width="2" height="2" fill="#D10000"/>
<rect x="19" y="34" width="2" height="2" fill="#D10000"/>
<rect x="19" y="32" width="2" height="2" fill="#D10000"/>
<rect x="19" y="30" width="2" height="2" fill="#D10000"/>
<rect x="19" y="28" width="2" height="2" fill="#D10000"/>
<rect x="19" y="26" width="2" height="2" fill="#D10000"/>
<rect x="19" y="24" width="2" height="2" fill="#D10000"/>
<rect x="21" y="32" width="2" height="2" fill="#D10000"/>
<rect x="21" y="30" width="2" height="2" fill="#D10000"/>
<rect x="21" y="28" width="2" height="2" fill="#D10000"/>
<rect x="21" y="26" width="2" height="2" fill="#D10000"/>
<rect x="21" y="24" width="2" height="2" fill="#D10000"/>
<rect x="21" y="22" width="2" height="2" fill="#D10000"/>
<rect x="23" y="30" width="2" height="2" fill="#D10000"/>
<rect x="23" y="28" width="2" height="2" fill="#D10000"/>
<rect x="23" y="26" width="2" height="2" fill="#D10000"/>
<rect x="23" y="24" width="2" height="2" fill="#D10000"/>
<rect x="23" y="22" width="2" height="2" fill="#D10000"/>
<rect x="23" y="20" width="2" height="2" fill="#D10000"/>
<rect x="25" y="28" width="2" height="2" fill="#D10000"/>
<rect x="25" y="26" width="2" height="2" fill="#D10000"/>
<rect x="25" y="24" width="2" height="2" fill="#D10000"/>
<rect x="25" y="22" width="2" height="2" fill="#D10000"/>
<rect x="25" y="20" width="2" height="2" fill="#D10000"/>
<rect x="25" y="18" width="2" height="2" fill="#D10000"/>
<rect x="27" y="26" width="2" height="2" fill="#D10000"/>
<rect x="27" y="24" width="2" height="2" fill="#D10000"/>
<rect x="27" y="22" width="2" height="2" fill="#D10000"/>
<rect x="27" y="20" width="2" height="2" fill="#D10000"/>
<rect x="27" y="18" width="2" height="2" fill="#D10000"/>
<rect x="27" y="16" width="2" height="2" fill="#D10000"/>
<rect x="29" y="24" width="2" height="2" fill="#D10000"/>
<rect x="29" y="22" width="2" height="2" fill="#D10000"/>
<rect x="29" y="20" width="2" height="2" fill="#D10000"/>
<rect x="29" y="18" width="2" height="2" fill="#D10000"/>
<rect x="29" y="16" width="2" height="2" fill="#D10000"/>
<rect x="29" y="14" width="2" height="2" fill="#D10000"/>
<rect x="31" y="22" width="2" height="2" fill="#D10000"/>
<rect x="31" y="20" width="2" height="2" fill="#D10000"/>
<rect x="31" y="18" width="2" height="2" fill="#D10000"/>
<rect x="31" y="16" width="2" height="2" fill="#D10000"/>
<rect x="31" y="14" width="2" height="2" fill="#D10000"/>
<rect x="31" y="12" width="2" height="2" fill="#D10000"/>
<rect x="33" y="20" width="2" height="2" fill="#D10000"/>
<rect x="33" y="18" width="2" height="2" fill="#D10000"/>
<rect x="33" y="16" width="2" height="2" fill="#D10000"/>
<rect x="33" y="14" width="2" height="2" fill="#D10000"/>
<rect x="33" y="12" width="2" height="2" fill="#D10000"/>
<rect x="33" y="10" width="2" height="2" fill="#D10000"/>
<rect x="35" y="19" width="2" height="2" fill="#D10000"/>
<rect x="35" y="17" width="2" height="2" fill="#D10000"/>
<rect x="35" y="15" width="2" height="2" fill="#D10000"/>
<rect x="35" y="13" width="2" height="2" fill="#D10000"/>
<rect x="35" y="11" width="2" height="2" fill="#D10000"/>
<rect x="35" y="9" width="2" height="2" fill="#D10000"/>
<rect x="17" y="20" width="2" height="2" fill="#D10000"/>
<rect x="17" y="18" width="2" height="2" fill="#D10000"/>
<rect x="17" y="16" width="2" height="2" fill="#D10000"/>
<rect x="17" y="14" width="2" height="2" fill="#D10000"/>
<rect x="17" y="12" width="2" height="2" fill="#D10000"/>
<rect x="17" y="10" width="2" height="2" fill="#D10000"/>
<rect x="19" y="22" width="2" height="2" fill="#D10000"/>
<rect x="19" y="20" width="2" height="2" fill="#D10000"/>
<rect x="19" y="18" width="2" height="2" fill="#D10000"/>
<rect x="19" y="16" width="2" height="2" fill="#D10000"/>
<rect x="19" y="14" width="2" height="2" fill="#D10000"/>
<rect x="19" y="12" width="2" height="2" fill="#D10000"/>
<rect x="21" y="20" width="2" height="2" fill="#D10000"/>
<rect x="21" y="18" width="2" height="2" fill="#D10000"/>
<rect x="21" y="16" width="2" height="2" fill="#D10000"/>
<rect x="21" y="14" width="2" height="2" fill="#D10000"/>
<rect x="21" y="12" width="2" height="2" fill="#D10000"/>
<rect x="21" y="10" width="2" height="2" fill="#D10000"/>
<rect x="23" y="18" width="2" height="2" fill="#D10000"/>
<rect x="23" y="16" width="2" height="2" fill="#D10000"/>
<rect x="23" y="14" width="2" height="2" fill="#D10000"/>
<rect x="23" y="12" width="2" height="2" fill="#D10000"/>
<rect x="23" y="10" width="2" height="2" fill="#D10000"/>
<rect x="23" y="8" width="2" height="2" fill="#D10000"/>
<rect x="25" y="16" width="2" height="2" fill="#D10000"/>
<rect x="25" y="14" width="2" height="2" fill="#D10000"/>
<rect x="25" y="12" width="2" height="2" fill="#D10000"/>
<rect x="25" y="10" width="2" height="2" fill="#D10000"/>
<rect x="25" y="8" width="2" height="2" fill="#D10000"/>
<rect x="25" y="6" width="2" height="2" fill="#D10000"/>
<rect x="27" y="14" width="2" height="2" fill="#D10000"/>
<rect x="27" y="12" width="2" height="2" fill="#D10000"/>
<rect x="27" y="10" width="2" height="2" fill="#D10000"/>
<rect x="27" y="8" width="2" height="2" fill="#D10000"/>
<rect x="27" y="6" width="2" height="2" fill="#D10000"/>
<rect x="27" y="4" width="2" height="2" fill="#D10000"/>
<rect x="29" y="14" width="2" height="2" fill="#D10000"/>
<rect x="29" y="12" width="2" height="2" fill="#D10000"/>
<rect x="29" y="10" width="2" height="2" fill="#D10000"/>
<rect x="29" y="8" width="2" height="2" fill="#D10000"/>
<rect x="29" y="6" width="2" height="2" fill="#D10000"/>
<rect x="29" y="4" width="2" height="2" fill="#D10000"/>
<rect x="31" y="14" width="2" height="2" fill="#D10000"/>
<rect x="31" y="12" width="2" height="2" fill="#D10000"/>
<rect x="31" y="10" width="2" height="2" fill="#D10000"/>
<rect x="31" y="8" width="2" height="2" fill="#D10000"/>
<rect x="31" y="6" width="2" height="2" fill="#D10000"/>
<rect x="31" y="4" width="2" height="2" fill="#D10000"/>
<rect x="33" y="16" width="2" height="2" fill="#D10000"/>
<rect x="33" y="14" width="2" height="2" fill="#D10000"/>
<rect x="33" y="12" width="2" height="2" fill="#D10000"/>
<rect x="33" y="10" width="2" height="2" fill="#D10000"/>
<rect x="33" y="8" width="2" height="2" fill="#D10000"/>
<rect x="33" y="6" width="2" height="2" fill="#D10000"/>
<rect x="35" y="8" width="2" height="2" fill="#D10000"/>
<rect x="33" y="6" width="2" height="2" fill="#D10000"/>
<rect x="31" y="4" width="2" height="2" fill="#D10000"/>
<rect x="29" y="2" width="2" height="2" fill="#D10000"/>
<rect x="3" y="8" width="2" height="2" fill="#D10000"/>
<rect x="5" y="6" width="2" height="2" fill="#D10000"/>
<rect x="7" y="4" width="2" height="2" fill="#D10000"/>
<rect x="9" y="2" width="2" height="2" fill="#D10000"/>
<rect x="11" y="2" width="2" height="2" fill="#D10000"/>
<rect x="27" y="2" width="2" height="2" fill="#D10000"/>
<rect x="25" y="2" width="2" height="2" fill="#D10000"/>
<rect x="13" y="2" width="2" height="2" fill="#D10000"/>
<rect x="15" y="4" width="2" height="2" fill="#D10000"/>
<rect x="17" y="6" width="2" height="2" fill="#D10000"/>
<rect x="19" y="8" width="2" height="2" fill="#D10000"/>
<rect x="21" y="6" width="2" height="2" fill="#D10000"/>
<rect x="23" y="4" width="2" height="2" fill="#D10000"/>
</svg>
