<svg width="40" height="40" viewBox="0 0 40 40" fill="none" xmlns="http://www.w3.org/2000/svg">
<rect x="14" y="2" width="2" height="2" fill="#D10000"/>
<rect x="16" y="2" width="2" height="2" fill="#D10000"/>
<rect x="18" y="2" width="2" height="2" fill="#D10000"/>
<rect x="20" y="2" width="2" height="2" fill="#D10000"/>
<rect x="22" y="2" width="2" height="2" fill="#D10000"/>
<rect x="24" y="2" width="2" height="2" fill="#D10000"/>
<rect x="14" y="36" width="2" height="2" fill="#D10000"/>
<rect x="16" y="36" width="2" height="2" fill="#D10000"/>
<rect x="18" y="36" width="2" height="2" fill="#D10000"/>
<rect x="20" y="36" width="2" height="2" fill="#D10000"/>
<rect x="22" y="36" width="2" height="2" fill="#D10000"/>
<rect x="24" y="36" width="2" height="2" fill="#D10000"/>
<rect x="36.0411" y="16" width="2" height="2" transform="rotate(-90 36.0411 16)" fill="#D10000"/>
<rect x="36.0329" y="18" width="2" height="2" transform="rotate(-90 36.0329 18)" fill="#D10000"/>
<rect x="36.0247" y="20" width="2" height="2" transform="rotate(-90 36.0247 20)" fill="#D10000"/>
<rect x="36.0165" y="22" width="2" height="2" transform="rotate(-90 36.0165 22)" fill="#D10000"/>
<rect x="36.0082" y="23.9999" width="2" height="2" transform="rotate(-90 36.0082 23.9999)" fill="#D10000"/>
<rect x="36" y="25.9999" width="2" height="2" transform="rotate(-90 36 25.9999)" fill="#D10000"/>
<rect x="2.04114" y="16" width="2" height="2" transform="rotate(-90 2.04114 16)" fill="#D10000"/>
<rect x="2" y="14" width="2" height="2" transform="rotate(-90 2 14)" fill="#D10000"/>
<rect x="2" y="28" width="2" height="2" transform="rotate(-90 2 28)" fill="#D10000"/>
<rect x="12" y="4" width="2" height="2" transform="rotate(-90 12 4)" fill="#D10000"/>
<rect x="26" y="4" width="2" height="2" transform="rotate(-90 26 4)" fill="#D10000"/>
<rect x="36" y="14" width="2" height="2" transform="rotate(-90 36 14)" fill="#D10000"/>
<rect x="36" y="28" width="2" height="2" transform="rotate(-90 36 28)" fill="#D10000"/>
<rect x="26" y="38" width="2" height="2" transform="rotate(-90 26 38)" fill="#D10000"/>
<rect x="12" y="38" width="2" height="2" transform="rotate(-90 12 38)" fill="#D10000"/>
<rect x="10" y="36" width="2" height="2" transform="rotate(-90 10 36)" fill="#D10000"/>
<rect x="28" y="36" width="2" height="2" transform="rotate(-90 28 36)" fill="#D10000"/>
<rect x="24" y="32" width="2" height="2" transform="rotate(-90 24 32)" fill="#D10000"/>
<rect x="22" y="30" width="2" height="2" transform="rotate(-90 22 30)" fill="#D10000"/>
<rect x="20" y="28" width="2" height="2" transform="rotate(-90 20 28)" fill="#D10000"/>
<rect x="26" y="28" width="2" height="2" transform="rotate(-90 26 28)" fill="#D10000"/>
<rect x="28" y="30" width="2" height="2" transform="rotate(-90 28 30)" fill="#D10000"/>
<rect x="16" y="28" width="2" height="2" transform="rotate(-90 16 28)" fill="#D10000"/>
<rect x="16" y="26" width="2" height="2" transform="rotate(-90 16 26)" fill="#D10000"/>
<rect x="18" y="26" width="2" height="2" transform="rotate(-90 18 26)" fill="#D10000"/>
<rect x="20" y="26" width="2" height="2" transform="rotate(-90 20 26)" fill="#D10000"/>
<rect x="22" y="26" width="2" height="2" transform="rotate(-90 22 26)" fill="#D10000"/>
<rect x="24" y="26" width="2" height="2" transform="rotate(-90 24 26)" fill="#D10000"/>
<rect x="26" y="26" width="2" height="2" transform="rotate(-90 26 26)" fill="#D10000"/>
<rect x="26" y="24" width="2" height="2" transform="rotate(-90 26 24)" fill="#D10000"/>
<rect x="24" y="24" width="2" height="2" transform="rotate(-90 24 24)" fill="#D10000"/>
<rect x="22" y="24" width="2" height="2" transform="rotate(-90 22 24)" fill="#D10000"/>
<rect x="20" y="24" width="2" height="2" transform="rotate(-90 20 24)" fill="#D10000"/>
<rect x="18" y="24" width="2" height="2" transform="rotate(-90 18 24)" fill="#D10000"/>
<rect x="16" y="24" width="2" height="2" transform="rotate(-90 16 24)" fill="#D10000"/>
<rect x="14" y="26" width="2" height="2" transform="rotate(-90 14 26)" fill="#D10000"/>
<rect x="14" y="24" width="2" height="2" transform="rotate(-90 14 24)" fill="#D10000"/>
<rect x="12" y="24" width="2" height="2" transform="rotate(-90 12 24)" fill="#D10000"/>
<rect x="10" y="24" width="2" height="2" transform="rotate(-90 10 24)" fill="#D10000"/>
<rect x="10" y="26" width="2" height="2" transform="rotate(-90 10 26)" fill="#D10000"/>
<rect x="12" y="28" width="2" height="2" transform="rotate(-90 12 28)" fill="#D10000"/>
<rect x="12" y="22" width="2" height="2" transform="rotate(-90 12 22)" fill="#D10000"/>
<rect x="12" y="20" width="2" height="2" transform="rotate(-90 12 20)" fill="#D10000"/>
<rect x="10" y="20" width="2" height="2" transform="rotate(-90 10 20)" fill="#D10000"/>
<rect x="8" y="20" width="2" height="2" transform="rotate(-90 8 20)" fill="#D10000"/>
<rect x="6" y="22" width="2" height="2" transform="rotate(-90 6 22)" fill="#D10000"/>
<rect x="6" y="24" width="2" height="2" transform="rotate(-90 6 24)" fill="#D10000"/>
<rect x="12" y="18" width="2" height="2" transform="rotate(-90 12 18)" fill="#D10000"/>
<rect x="12" y="16" width="2" height="2" transform="rotate(-90 12 16)" fill="#D10000"/>
<rect x="10" y="16" width="2" height="2" transform="rotate(-90 10 16)" fill="#D10000"/>
<rect x="8" y="16" width="2" height="2" transform="rotate(-90 8 16)" fill="#D10000"/>
<rect x="6" y="16" width="2" height="2" transform="rotate(-90 6 16)" fill="#D10000"/>
<rect x="8" y="14" width="2" height="2" transform="rotate(-90 8 14)" fill="#D10000"/>
<rect x="10" y="14" width="2" height="2" transform="rotate(-90 10 14)" fill="#D10000"/>
<rect x="12" y="14" width="2" height="2" transform="rotate(-90 12 14)" fill="#D10000"/>
<rect x="10" y="12" width="2" height="2" transform="rotate(-90 10 12)" fill="#D10000"/>
<rect x="14" y="22" width="2" height="2" transform="rotate(-90 14 22)" fill="#D10000"/>
<rect x="16" y="22" width="2" height="2" transform="rotate(-90 16 22)" fill="#D10000"/>
<rect x="18" y="22" width="2" height="2" transform="rotate(-90 18 22)" fill="#D10000"/>
<rect x="20" y="22" width="2" height="2" transform="rotate(-90 20 22)" fill="#D10000"/>
<rect x="22" y="22" width="2" height="2" transform="rotate(-90 22 22)" fill="#D10000"/>
<rect x="24" y="22" width="2" height="2" transform="rotate(-90 24 22)" fill="#D10000"/>
<rect x="26" y="20" width="2" height="2" transform="rotate(-90 26 20)" fill="#D10000"/>
<rect x="26" y="18" width="2" height="2" transform="rotate(-90 26 18)" fill="#D10000"/>
<rect x="28" y="18" width="2" height="2" transform="rotate(-90 28 18)" fill="#D10000"/>
<rect x="30" y="18" width="2" height="2" transform="rotate(-90 30 18)" fill="#D10000"/>
<rect x="32" y="16" width="2" height="2" transform="rotate(-90 32 16)" fill="#D10000"/>
<rect x="14" y="20" width="2" height="2" transform="rotate(-90 14 20)" fill="#D10000"/>
<rect x="18" y="20" width="2" height="2" transform="rotate(-90 18 20)" fill="#D10000"/>
<rect x="20" y="20" width="2" height="2" transform="rotate(-90 20 20)" fill="#D10000"/>
<rect x="20" y="18" width="2" height="2" transform="rotate(-90 20 18)" fill="#D10000"/>
<rect x="18" y="18" width="2" height="2" transform="rotate(-90 18 18)" fill="#D10000"/>
<rect x="14" y="18" width="2" height="2" transform="rotate(-90 14 18)" fill="#D10000"/>
<rect x="16" y="16" width="2" height="2" transform="rotate(-90 16 16)" fill="#D10000"/>
<rect x="16" y="14" width="2" height="2" transform="rotate(-90 16 14)" fill="#D10000"/>
<rect x="18" y="14" width="2" height="2" transform="rotate(-90 18 14)" fill="#D10000"/>
<rect x="16" y="12" width="2" height="2" transform="rotate(-90 16 12)" fill="#D10000"/>
<rect x="16" y="10" width="2" height="2" transform="rotate(-90 16 10)" fill="#D10000"/>
<rect x="14" y="10" width="2" height="2" transform="rotate(-90 14 10)" fill="#D10000"/>
<rect x="18" y="10" width="2" height="2" transform="rotate(-90 18 10)" fill="#D10000"/>
<rect x="20" y="10" width="2" height="2" transform="rotate(-90 20 10)" fill="#D10000"/>
<rect x="22" y="10" width="2" height="2" transform="rotate(-90 22 10)" fill="#D10000"/>
<rect x="24" y="10" width="2" height="2" transform="rotate(-90 24 10)" fill="#D10000"/>
<rect x="16" y="8" width="2" height="2" transform="rotate(-90 16 8)" fill="#D10000"/>
<rect x="18" y="16" width="2" height="2" transform="rotate(-90 18 16)" fill="#D10000"/>
<rect x="20" y="16" width="2" height="2" transform="rotate(-90 20 16)" fill="#D10000"/>
<rect x="30" y="34" width="2" height="2" transform="rotate(-90 30 34)" fill="#D10000"/>
<rect x="32" y="32" width="2" height="2" transform="rotate(-90 32 32)" fill="#D10000"/>
<rect x="34" y="30" width="2" height="2" transform="rotate(-90 34 30)" fill="#D10000"/>
<rect x="4" y="12" width="2" height="2" transform="rotate(-90 4 12)" fill="#D10000"/>
<rect x="6" y="10" width="2" height="2" transform="rotate(-90 6 10)" fill="#D10000"/>
<rect x="8" y="8" width="2" height="2" transform="rotate(-90 8 8)" fill="#D10000"/>
<rect x="10" y="6" width="2" height="2" transform="rotate(-90 10 6)" fill="#D10000"/>
<rect x="8" y="34" width="2" height="2" transform="rotate(-90 8 34)" fill="#D10000"/>
<rect x="6" y="32" width="2" height="2" transform="rotate(-90 6 32)" fill="#D10000"/>
<rect x="4" y="30" width="2" height="2" transform="rotate(-90 4 30)" fill="#D10000"/>
<rect x="34" y="12" width="2" height="2" transform="rotate(-90 34 12)" fill="#D10000"/>
<rect x="32" y="10" width="2" height="2" transform="rotate(-90 32 10)" fill="#D10000"/>
<rect x="30" y="8" width="2" height="2" transform="rotate(-90 30 8)" fill="#D10000"/>
<rect x="28" y="6" width="2" height="2" transform="rotate(-90 28 6)" fill="#D10000"/>
<rect x="2.0329" y="18" width="2" height="2" transform="rotate(-90 2.0329 18)" fill="#D10000"/>
<rect x="2.02472" y="20" width="2" height="2" transform="rotate(-90 2.02472 20)" fill="#D10000"/>
<rect x="2.01648" y="22" width="2" height="2" transform="rotate(-90 2.01648 22)" fill="#D10000"/>
<rect x="2.00824" y="23.9999" width="2" height="2" transform="rotate(-90 2.00824 23.9999)" fill="#D10000"/>
<rect x="2" y="25.9999" width="2" height="2" transform="rotate(-90 2 25.9999)" fill="#D10000"/>
</svg>
