<svg width="54" height="54" viewBox="0 0 54 54" fill="none" xmlns="http://www.w3.org/2000/svg">
<path d="M1.68737 0H15.187C15.746 0 16.2734 0.284759 16.5898 0.74881L25.1431 13.5735C19.9225 14.0059 15.2292 16.2734 11.6856 19.7222L0.284668 2.62611C-0.0633702 2.10932 -0.0950101 1.44489 0.200295 0.896463C0.495601 0.348039 1.06512 0 1.68737 0ZM53.7139 2.62611L42.313 19.7327C38.7799 16.284 34.0761 14.0165 28.8555 13.5841L37.4088 0.74881C37.7252 0.274212 38.2525 0 38.8115 0H52.3112C52.9334 0 53.5029 0.337492 53.7982 0.896463C54.0935 1.45543 54.0619 2.10932 53.7139 2.62611ZM45.5613 35.4367C45.5613 45.688 37.2506 53.9987 26.9993 53.9987C16.7479 53.9987 8.43721 45.688 8.43721 35.4367C8.43721 25.1853 16.7479 16.8746 26.9993 16.8746C37.2506 16.8746 45.5613 25.1853 45.5613 35.4367ZM27.8852 25.4279C27.5266 24.6896 26.4825 24.6896 26.1134 25.4279L23.7509 30.2161C23.6033 30.5114 23.329 30.7118 23.0126 30.754L17.7182 31.5239C16.9061 31.6399 16.5898 32.6313 17.1698 33.2113L20.9982 36.9448C21.2303 37.1768 21.3357 37.4933 21.283 37.8202L20.376 43.083C20.2389 43.8845 21.0826 44.5068 21.8103 44.1271L26.5352 41.6381C26.82 41.4904 27.168 41.4904 27.4528 41.6381L32.1777 44.1271C32.9054 44.5068 33.7491 43.8951 33.612 43.083L32.705 37.8202C32.6523 37.5038 32.7577 37.1768 32.9897 36.9448L36.8182 33.2113C37.4088 32.6418 37.0818 31.6504 36.2697 31.5239L30.9859 30.754C30.6695 30.7118 30.3847 30.5008 30.2476 30.2161L27.8852 25.4279Z" fill="#DD0426"/>
</svg>
