<svg width="54" height="46" viewBox="0 0 54 46" fill="none" xmlns="http://www.w3.org/2000/svg">
<path d="M14.2155 8.52525C16.5688 8.52525 18.4781 6.61595 18.4781 4.26262C18.4781 1.9093 16.5688 0 14.2155 0C11.8622 0 9.95289 1.9093 9.95289 4.26262C9.95289 6.61595 11.8622 8.52525 14.2155 8.52525ZM13.5051 42.6262V31.2592H14.9259V42.6262C14.9259 44.1981 16.1959 45.468 17.7677 45.468C19.3395 45.468 20.6094 44.1981 20.6094 42.6262V17.0505H25.5825H31.266H32.6869C34.2587 17.0505 35.5286 15.7806 35.5286 14.2087C35.5286 12.6369 34.2587 11.367 32.6869 11.367H31.266V5.6835H48.3165V22.734H31.266V19.8922H25.5825V24.1549C25.5825 26.5082 27.4918 28.4175 29.8451 28.4175H49.7374C52.0907 28.4175 54 26.5082 54 24.1549V4.26262C54 1.9093 52.0907 0 49.7374 0H29.8451C27.4918 0 25.5825 1.9093 25.5825 4.26262V11.367H18.7534H12.8923C9.8996 11.367 7.1289 12.9388 5.5837 15.5053L0.406386 24.1193C-0.401737 25.4603 0.0334063 27.2098 1.37436 28.0179C2.71531 28.826 4.46476 28.3909 5.27288 27.0499L7.82158 22.8139V42.6262C7.82158 44.1981 9.09148 45.468 10.6633 45.468C12.2352 45.468 13.5051 44.1981 13.5051 42.6262Z" fill="#DD0426"/>
</svg>
