<svg width="24" height="24" viewBox="0 0 24 24" fill="none" xmlns="http://www.w3.org/2000/svg">
<path d="M6.99609 0C3.14062 0 0 3.14062 0 7V17C0 20.8594 3.14062 24 7 24H17C20.8594 24 24 20.8594 24 16.9961V6.99609C24 3.14062 20.8594 0 16.9961 0H6.99609ZM19 4C19.5508 4 20 4.44922 20 5C20 5.55078 19.5508 6 19 6C18.4492 6 18 5.55078 18 5C18 4.44922 18.4492 4 19 4ZM12 6C15.3086 6 18 8.69141 18 12C18 15.3086 15.3086 18 12 18C8.69141 18 6 15.3086 6 12C6 8.69141 8.69141 6 12 6ZM12 8C9.78906 8 8 9.78906 8 12C8 14.2109 9.78906 16 12 16C14.2109 16 16 14.2109 16 12C16 9.78906 14.2109 8 12 8Z" fill="#DD0426"/>
</svg>
