<svg width="24" height="24" viewBox="0 0 24 24" fill="none" xmlns="http://www.w3.org/2000/svg">
<path d="M21.8182 0H2.18182C0.975852 0 0 0.975852 0 2.18182V21.8182C0 23.0241 0.975852 24 2.18182 24H21.8182C23.0241 24 24 23.0241 24 21.8182V2.18182C24 0.975852 23.0241 0 21.8182 0ZM7.58523 19.6364H4.3679V9.28125H7.58523V19.6364ZM5.9446 7.80256C4.90483 7.80256 4.0696 6.95881 4.0696 5.9233C4.0696 4.88778 4.90909 4.0483 5.9446 4.0483C6.98011 4.0483 7.8196 4.89205 7.8196 5.9233C7.8196 6.95881 6.98011 7.80256 5.9446 7.80256ZM19.6406 19.6364H16.4233V14.5994C16.4233 13.3977 16.402 11.8551 14.7528 11.8551C13.0781 11.8551 12.8224 13.1634 12.8224 14.5142V19.6364H9.60511V9.28125H12.6903V10.696H12.7372C13.1634 9.8821 14.2159 9.02557 15.7798 9.02557C19.0398 9.02557 19.6406 11.169 19.6406 13.956V19.6364Z" fill="#DD0426"/>
</svg>
