<svg width="24" height="20" viewBox="0 0 24 20" fill="none" xmlns="http://www.w3.org/2000/svg">
<path d="M24 2.30769C23.1166 2.70072 22.1683 2.96394 21.1731 3.08293C22.1899 2.47356 22.9688 1.50721 23.3365 0.356972C22.3846 0.923077 21.3317 1.33413 20.2103 1.55409C19.3125 0.598558 18.0325 0 16.6154 0C13.8966 0 11.6899 2.20313 11.6899 4.92187C11.6899 5.30769 11.7368 5.6863 11.8197 6.04327C7.72716 5.83774 4.09976 3.87981 1.66947 0.897836C1.2476 1.6262 1.00601 2.46995 1.00601 3.375C1.00601 5.08413 1.87139 6.59135 3.19471 7.47115C2.38702 7.44591 1.6262 7.22596 0.962741 6.85817C0.962741 6.87981 0.962741 6.89784 0.962741 6.91947C0.962741 9.30649 2.66106 11.2969 4.91466 11.7476C4.5 11.8594 4.0637 11.9207 3.61659 11.9207C3.29928 11.9207 2.98918 11.8882 2.6899 11.8305C3.31731 13.7885 5.13462 15.2127 7.29087 15.2524C5.60337 16.5721 3.48317 17.3582 1.17548 17.3582C0.778846 17.3582 0.385818 17.3365 0 17.2897C2.17788 18.6887 4.76683 19.5036 7.54688 19.5036C16.6046 19.5036 21.5553 12 21.5553 5.49159C21.5553 5.27885 21.5517 5.0661 21.5409 4.85697C22.5036 4.16106 23.3401 3.29567 24 2.30769Z" fill="#DD0426"/>
</svg>
