<svg width="79" height="90" viewBox="0 0 79 90" fill="none" xmlns="http://www.w3.org/2000/svg">
<mask id="mask0_313_3" style="mask-type:alpha" maskUnits="userSpaceOnUse" x="0" y="0" width="79" height="90">
<path d="M65.1621 16.8926C60.8379 6.94336 50.9238 0 39.375 0C27.8262 0 17.9121 6.94336 13.5879 16.8926C10.7051 17.1387 8.4375 19.5469 8.4375 22.5V33.75C8.4375 36.7031 10.7051 39.1113 13.5879 39.3574C17.9121 49.3066 27.8262 56.25 39.375 56.25C50.9238 56.25 60.8379 49.3066 65.1621 39.3574C68.0449 39.1113 70.3125 36.7031 70.3125 33.75V22.5C70.3125 19.5469 68.0449 17.1387 65.1621 16.8926ZM59.0625 25.3125V28.125C59.0625 37.4414 51.5039 45 42.1875 45H36.5625C27.2461 45 19.6875 37.4414 19.6875 28.125V25.3125C19.6875 20.6543 23.4668 16.875 28.125 16.875H50.625C55.2832 16.875 59.0625 20.6543 59.0625 25.3125ZM33.2754 28.5996L32.2207 24.873C32.0625 24.293 31.5352 23.9062 30.9375 23.9062C30.3398 23.9062 29.8125 24.293 29.6543 24.873L28.5996 28.5996L24.873 29.6543C24.293 29.8125 23.9062 30.3398 23.9062 30.9375C23.9062 31.5352 24.293 32.0625 24.873 32.2207L28.5996 33.2754L29.6543 37.002C29.8125 37.582 30.3398 37.9688 30.9375 37.9688C31.5352 37.9688 32.0625 37.582 32.2207 37.002L33.2754 33.2754L37.002 32.2207C37.582 32.0625 37.9688 31.5352 37.9688 30.9375C37.9688 30.3398 37.582 29.8125 37.002 29.6543L33.2754 28.5996ZM19.8105 55.6348C8.20898 60.2227 0 71.543 0 84.7793C0 87.6621 2.33789 90 5.2207 90H22.5V78.75C22.5 75.6387 25.0137 73.125 28.125 73.125H50.625C53.7363 73.125 56.25 75.6387 56.25 78.75V90H73.5293C76.4121 90 78.75 87.6621 78.75 84.7793C78.75 71.543 70.541 60.2227 58.9394 55.6348C53.4199 59.5547 46.6699 61.875 39.375 61.875C32.0801 61.875 25.3301 59.5547 19.8105 55.6348ZM30.9375 78.75C29.3906 78.75 28.125 80.0156 28.125 81.5625V90H33.75V81.5625C33.75 80.0156 32.4844 78.75 30.9375 78.75ZM47.8125 84.375C49.3594 84.375 50.625 83.1094 50.625 81.5625C50.625 80.0156 49.3594 78.75 47.8125 78.75C46.2656 78.75 45 80.0156 45 81.5625C45 83.1094 46.2656 84.375 47.8125 84.375Z" fill="#0F0220"/>
</mask>
<g mask="url(#mask0_313_3)">
<circle cx="39" cy="34" r="56" fill="#CFCFCF"/>
</g>
</svg>
